<svg width="868" height="499" viewBox="0 0 868 499" fill="none" xmlns="http://www.w3.org/2000/svg">
<g clip-path="url(#clip0)">
<path d="M448.078 14.2436C452.013 14.2436 455.203 11.0551 455.203 7.12181C455.203 3.18854 452.013 0 448.078 0C444.143 0 440.953 3.18854 440.953 7.12181C440.953 11.0551 444.143 14.2436 448.078 14.2436Z" fill="#FD3A69"/>
<path d="M448.078 42.6271C452.013 42.6271 455.203 39.4385 455.203 35.5053C455.203 31.572 452.013 28.3835 448.078 28.3835C444.143 28.3835 440.953 31.572 440.953 35.5053C440.953 39.4385 444.143 42.6271 448.078 42.6271Z" fill="#FD3A69"/>
<path d="M477.826 14.2436C481.761 14.2436 484.951 11.0551 484.951 7.12181C484.951 3.18854 481.761 0 477.826 0C473.891 0 470.701 3.18854 470.701 7.12181C470.701 11.0551 473.891 14.2436 477.826 14.2436Z" fill="#FD3A69"/>
<path d="M477.826 42.6271C481.761 42.6271 484.951 39.4385 484.951 35.5053C484.951 31.572 481.761 28.3835 477.826 28.3835C473.891 28.3835 470.701 31.572 470.701 35.5053C470.701 39.4385 473.891 42.6271 477.826 42.6271Z" fill="#FD3A69"/>
<path d="M507.573 14.2436C511.508 14.2436 514.698 11.0551 514.698 7.12181C514.698 3.18854 511.508 0 507.573 0C503.638 0 500.448 3.18854 500.448 7.12181C500.448 11.0551 503.638 14.2436 507.573 14.2436Z" fill="#FD3A69"/>
<path d="M507.573 42.6271C511.508 42.6271 514.698 39.4385 514.698 35.5053C514.698 31.572 511.508 28.3835 507.573 28.3835C503.638 28.3835 500.448 31.572 500.448 35.5053C500.448 39.4385 503.638 42.6271 507.573 42.6271Z" fill="#FD3A69"/>
<path d="M507.573 71.0105C511.508 71.0105 514.698 67.822 514.698 63.8887C514.698 59.9554 511.508 56.7669 507.573 56.7669C503.638 56.7669 500.448 59.9554 500.448 63.8887C500.448 67.822 503.638 71.0105 507.573 71.0105Z" fill="#FD3A69"/>
<path d="M507.573 99.394C511.508 99.394 514.698 96.2054 514.698 92.2721C514.698 88.3389 511.508 85.1503 507.573 85.1503C503.638 85.1503 500.448 88.3389 500.448 92.2721C500.448 96.2054 503.638 99.394 507.573 99.394Z" fill="#FD3A69"/>
<path d="M537.321 14.2436C541.256 14.2436 544.446 11.0551 544.446 7.12181C544.446 3.18854 541.256 0 537.321 0C533.386 0 530.196 3.18854 530.196 7.12181C530.196 11.0551 533.386 14.2436 537.321 14.2436Z" fill="#FD3A69"/>
<path d="M537.321 42.6271C541.256 42.6271 544.446 39.4385 544.446 35.5053C544.446 31.572 541.256 28.3835 537.321 28.3835C533.386 28.3835 530.196 31.572 530.196 35.5053C530.196 39.4385 533.386 42.6271 537.321 42.6271Z" fill="#FD3A69"/>
<path d="M537.321 71.0105C541.256 71.0105 544.446 67.822 544.446 63.8887C544.446 59.9554 541.256 56.7669 537.321 56.7669C533.386 56.7669 530.196 59.9554 530.196 63.8887C530.196 67.822 533.386 71.0105 537.321 71.0105Z" fill="#FD3A69"/>
<path d="M537.321 99.394C541.256 99.394 544.446 96.2054 544.446 92.2721C544.446 88.3389 541.256 85.1503 537.321 85.1503C533.386 85.1503 530.196 88.3389 530.196 92.2721C530.196 96.2054 533.386 99.394 537.321 99.394Z" fill="#FD3A69"/>
<path d="M567.069 14.2436C571.004 14.2436 574.194 11.0551 574.194 7.12181C574.194 3.18854 571.004 0 567.069 0C563.134 0 559.944 3.18854 559.944 7.12181C559.944 11.0551 563.134 14.2436 567.069 14.2436Z" fill="#FD3A69"/>
<path d="M567.069 42.6271C571.004 42.6271 574.194 39.4385 574.194 35.5053C574.194 31.572 571.004 28.3835 567.069 28.3835C563.134 28.3835 559.944 31.572 559.944 35.5053C559.944 39.4385 563.134 42.6271 567.069 42.6271Z" fill="#FD3A69"/>
<path d="M596.816 14.2436C600.751 14.2436 603.941 11.0551 603.941 7.12181C603.941 3.18854 600.751 0 596.816 0C592.881 0 589.691 3.18854 589.691 7.12181C589.691 11.0551 592.881 14.2436 596.816 14.2436Z" fill="#FD3A69"/>
<path d="M596.816 42.6271C600.751 42.6271 603.941 39.4385 603.941 35.5053C603.941 31.572 600.751 28.3835 596.816 28.3835C592.881 28.3835 589.691 31.572 589.691 35.5053C589.691 39.4385 592.881 42.6271 596.816 42.6271Z" fill="#FD3A69"/>
<path d="M814.33 375.819H761.434C761.434 377.338 706.919 378.572 706.919 378.572C706.063 379.216 705.283 379.955 704.594 380.774C702.524 383.243 701.392 386.363 701.399 389.585V391.787C701.4 395.438 702.851 398.938 705.434 401.52C708.016 404.101 711.519 405.552 715.171 405.553H814.33C817.981 405.55 821.482 404.099 824.064 401.518C826.646 398.937 828.098 395.437 828.102 391.787V389.585C828.097 385.935 826.644 382.437 824.062 379.856C821.481 377.276 817.981 375.824 814.33 375.819Z" fill="#3F3D56"/>
<path d="M772.457 405.006H758.134V497.513H772.457V405.006Z" fill="#3F3D56"/>
<path d="M813.222 497.01C813.222 498.557 791.518 497.608 764.745 497.608C737.971 497.608 716.267 498.557 716.267 497.01C716.267 495.463 737.971 483.197 764.745 483.197C791.518 483.197 813.222 495.463 813.222 497.01Z" fill="#3F3D56"/>
<path d="M693.12 484.843L679.612 484.842L673.186 432.765L693.122 432.766L693.12 484.843Z" fill="#FFB8B8"/>
<path d="M669.964 480.985H696.014V497.379H653.562C653.562 493.031 655.29 488.861 658.366 485.786C661.442 482.712 665.614 480.985 669.964 480.985Z" fill="#2F2E41"/>
<path d="M672.034 477.307L659.147 473.264L668.613 421.653L687.634 427.62L672.034 477.307Z" fill="#FFB8B8"/>
<path d="M651.097 466.697L675.952 474.493L671.041 490.135L630.536 477.43C631.181 475.376 632.225 473.469 633.607 471.818C634.989 470.167 636.683 468.804 638.593 467.807C640.502 466.811 642.589 466.199 644.734 466.009C646.88 465.818 649.042 466.052 651.097 466.697Z" fill="#2F2E41"/>
<path d="M778.155 366.791C777.843 364.167 777.282 361.578 776.48 359.06L773.957 355.889L767.39 347.651L767.104 347.662C766.619 347.684 764.603 347.794 761.485 348.037H761.452C759.524 348.191 757.166 348.389 754.489 348.642C753.783 348.719 753.045 348.786 752.285 348.863V360.36H766.057C766.727 360.361 767.373 360.605 767.875 361.046C768.378 361.488 768.703 362.097 768.79 362.761C768.8 362.882 768.812 362.992 768.812 363.113C768.811 363.843 768.521 364.543 768.005 365.06C767.488 365.576 766.788 365.866 766.057 365.866H686.069C685.05 366.543 684.071 367.278 683.138 368.069C680.32 370.249 678.29 373.288 677.354 376.725C672.683 397.253 664.166 435.533 661.654 446.777C661.472 447.624 661.513 448.504 661.774 449.33C662.035 450.157 662.506 450.901 663.141 451.49C663.61 451.927 664.161 452.268 664.761 452.492L674.699 456.215C675.107 456.366 675.533 456.466 675.966 456.512C676.021 456.512 676.065 456.523 676.12 456.523C676.223 456.532 676.326 456.536 676.429 456.534C677.433 456.53 678.414 456.223 679.241 455.653C680.069 455.084 680.705 454.277 681.067 453.34L688.912 432.769L700.998 401.052L705.78 388.508C711.321 389.808 757.816 400.094 773.384 383.52C774.92 381.887 776.131 379.977 776.954 377.892C778.264 374.348 778.676 370.534 778.155 366.791Z" fill="#2F2E41"/>
<path d="M791.64 369.787C791.398 368.807 791.122 367.793 790.803 366.769L781.713 355.36L781.427 355.371C780.854 355.404 778.132 355.547 773.957 355.889C769.219 356.285 762.597 356.924 755.161 357.926C754.941 357.948 754.709 357.981 754.489 358.014C753.761 358.113 753.023 358.212 752.285 358.323V360.36H766.057C766.726 360.361 767.373 360.605 767.875 361.046C768.378 361.488 768.703 362.097 768.79 362.761C768.8 362.882 768.812 362.992 768.812 363.113C768.811 363.843 768.521 364.543 768.005 365.059C767.488 365.576 766.788 365.866 766.057 365.866H717.381C715.255 366.56 713.205 367.287 711.244 368.069C700.954 372.143 693.253 377.485 691.677 384.434C691.148 386.768 690.564 389.334 689.947 392.065C687.655 402.219 684.868 414.653 682.345 425.952V425.963C681.827 428.297 681.31 430.566 680.814 432.769C678.709 442.239 676.925 450.268 675.977 454.486C675.955 454.607 675.933 454.717 675.911 454.838V454.86C675.801 455.713 675.907 456.58 676.219 457.382L676.23 457.393V457.404C676.533 458.172 677.026 458.85 677.663 459.375C678.088 459.726 678.568 460.005 679.084 460.201L689.022 463.923C689.575 464.13 690.161 464.238 690.751 464.243C691.58 464.245 692.395 464.036 693.12 463.637C694.162 463.073 694.967 462.155 695.39 461.049L716.786 404.928L720.103 396.217C725.644 397.517 772.139 407.792 787.707 391.228C790.782 387.901 792.537 383.566 792.643 379.037C792.751 375.922 792.414 372.807 791.64 369.787Z" fill="#2F2E41"/>
<path d="M790.417 272.632C790.241 272.423 790.053 272.214 789.855 272.016C786.921 268.932 783.297 266.587 779.281 265.172C775.266 263.758 770.972 263.314 766.751 263.877C763.07 264.361 759.423 265.078 755.833 266.025C751.196 267.216 746.95 269.596 743.515 272.93C740.839 275.523 738.732 278.644 737.326 282.094C735.921 285.544 735.248 289.249 735.351 292.973C735.395 294.482 735.406 296.023 735.384 297.587C735.384 298.314 735.373 299.052 735.362 299.79H746.225C746.697 299.788 747.167 299.844 747.625 299.955C748.95 300.272 750.131 301.025 750.976 302.094C751.822 303.162 752.283 304.484 752.285 305.847V357.078C753.023 357.287 753.761 357.496 754.489 357.717C754.72 357.794 754.941 357.86 755.161 357.926C755.414 358.003 755.667 358.08 755.91 358.157C758.146 358.851 760.331 359.585 762.465 360.36H766.057C766.726 360.361 767.373 360.605 767.875 361.046C768.378 361.488 768.703 362.097 768.79 362.761C769.539 363.058 770.266 363.355 770.982 363.653C773.527 364.71 775.94 365.767 778.155 366.791C781.14 368.157 783.796 369.456 786.021 370.591C786.721 370.947 787.494 371.136 788.28 371.141C789.311 371.138 790.314 370.806 791.144 370.194C791.317 370.067 791.482 369.931 791.64 369.787C792.23 369.234 792.675 368.546 792.938 367.782C793.201 367.018 793.274 366.202 793.149 365.404C792.012 356.753 791.68 348.015 792.158 339.303C792.466 331.98 793.127 324.469 793.987 317.212C794.45 313.28 794.967 309.426 795.507 305.715C796.025 302.168 796.576 298.766 797.116 295.55C797.824 291.472 797.589 287.287 796.428 283.314C795.266 279.341 793.21 275.687 790.417 272.632Z" fill="#120078"/>
<path d="M745.256 273.536C744.691 273.293 744.109 273.09 743.515 272.93C740.579 272.139 737.457 272.431 734.718 273.751C731.979 275.072 729.807 277.332 728.597 280.121L721.028 297.587L720.081 299.79H746.225C746.697 299.788 747.167 299.844 747.625 299.955L748.506 297.918L751.855 290.187C753.186 287.104 753.238 283.619 752.001 280.497C750.764 277.375 748.338 274.872 745.256 273.536Z" fill="#120078"/>
<path d="M768.763 255.278C783.708 255.278 795.823 243.168 795.823 228.23C795.823 213.291 783.708 201.181 768.763 201.181C753.818 201.181 741.703 213.291 741.703 228.23C741.703 243.168 753.818 255.278 768.763 255.278Z" fill="#FFB8B8"/>
<path d="M795.507 305.715L780.061 306.133L778.937 316.981L778.683 319.492L754.489 330.35L752.285 331.341V350.647L754.489 350.019L761.452 348.037H761.485L792.158 339.304L792.51 339.204C794.989 338.489 797.17 336.993 798.73 334.94C800.291 332.886 801.146 330.385 801.171 327.806L801.247 314.998L801.314 305.56L795.507 305.715Z" fill="#FFB8B8"/>
<path d="M800.531 284.262C800.429 282.602 800.001 280.978 799.271 279.483C798.542 277.988 797.524 276.652 796.278 275.55C793.76 273.324 790.461 272.19 787.106 272.396C783.752 272.602 780.617 274.131 778.39 276.648C776.164 279.164 775.029 282.462 775.235 285.815L776.92 313.303C776.966 314.026 777.17 314.73 777.519 315.366C777.867 316.002 778.351 316.553 778.937 316.981C779.868 317.675 781.016 318.015 782.176 317.939L793.987 317.212L797.568 316.992C798.22 316.96 798.859 316.796 799.446 316.51C800.033 316.224 800.556 315.822 800.983 315.329C801.078 315.224 801.166 315.114 801.247 314.998C801.948 314.062 802.291 312.906 802.217 311.739L800.531 284.262Z" fill="#6C63FF"/>
<path d="M755.91 358.157H754.489V358.014C753.761 358.113 753.023 358.212 752.285 358.323V360.36H762.465C760.328 359.589 758.143 358.855 755.91 358.157ZM755.91 358.157H754.489V358.014C753.761 358.113 753.023 358.212 752.285 358.323V360.36H762.465C760.328 359.589 758.143 358.855 755.91 358.157ZM766.057 358.157H754.489V305.847C754.485 304.056 753.899 302.315 752.82 300.885C751.742 299.455 750.228 298.414 748.506 297.918C747.766 297.695 746.998 297.583 746.225 297.587H648.168C645.978 297.59 643.877 298.461 642.328 300.009C640.779 301.558 639.908 303.657 639.905 305.847V359.809C639.906 362 640.777 364.1 642.326 365.649C643.876 367.198 645.977 368.068 648.168 368.069H766.057C767.278 368.067 768.455 367.615 769.363 366.801C770.272 365.986 770.848 364.865 770.982 363.653C771.004 363.474 771.015 363.293 771.015 363.113C771.013 361.799 770.49 360.54 769.561 359.611C768.631 358.682 767.372 358.159 766.057 358.157H766.057ZM768.812 363.113C768.811 363.843 768.521 364.543 768.005 365.059C767.488 365.576 766.788 365.866 766.057 365.866H648.168C646.562 365.865 645.021 365.227 643.885 364.091C642.748 362.955 642.11 361.415 642.109 359.809V305.847C642.11 304.241 642.748 302.701 643.885 301.565C645.021 300.429 646.562 299.791 648.168 299.79H746.225C746.697 299.788 747.167 299.844 747.625 299.955C748.95 300.272 750.131 301.025 750.976 302.094C751.822 303.162 752.283 304.484 752.285 305.847V360.36H766.057C766.727 360.361 767.373 360.605 767.875 361.046C768.378 361.488 768.703 362.097 768.79 362.761C768.8 362.882 768.812 362.992 768.812 363.113H768.812ZM755.91 358.157H754.489V358.014C753.761 358.113 753.023 358.212 752.285 358.323V360.36H762.465C760.328 359.589 758.143 358.855 755.91 358.157Z" fill="#3F3D56"/>
<path d="M697.194 339.437C700.844 339.437 703.804 336.479 703.804 332.83C703.804 329.18 700.844 326.222 697.194 326.222C693.543 326.222 690.583 329.18 690.583 332.83C690.583 336.479 693.543 339.437 697.194 339.437Z" fill="#120078"/>
<path d="M762.985 217.5C756.7 223.113 748.273 229.137 740.576 225.025C735.523 222.325 733.273 216.404 734.453 210.799C736.575 200.72 745.293 195.274 753.733 190.872C764.705 185.149 776.813 180.158 789.1 181.646C801.386 183.134 813.391 193.281 812.81 205.639C812.344 215.576 804.226 224.847 806.795 234.458C809.382 244.13 821.128 247.876 831.132 248.368C841.137 248.86 852.15 248.008 860.087 254.116C870.211 261.909 870.049 278.203 862.841 288.75C855.634 299.297 843.463 305.232 831.509 309.743C815.67 315.721 798.26 320.039 781.911 315.645C765.561 311.25 751.248 295.572 753.646 278.82C754.659 271.744 758.384 265.392 761.978 259.212C765.572 253.032 769.187 246.589 769.942 239.48C770.571 233.557 768.689 227.018 764.318 223.202C763.527 222.538 762.967 221.64 762.718 220.637C762.469 219.635 762.545 218.579 762.934 217.622L762.985 217.5Z" fill="#2F2E41"/>
<path d="M1.31186 499H853.299C853.647 499 853.981 498.862 854.227 498.616C854.473 498.37 854.611 498.037 854.611 497.689C854.611 497.341 854.473 497.007 854.227 496.762C853.981 496.516 853.647 496.378 853.299 496.378H1.31186C1.13926 496.377 0.968272 496.411 0.808671 496.476C0.64907 496.542 0.504011 496.638 0.381791 496.76C0.259571 496.882 0.162596 497.027 0.0964312 497.186C0.0302662 497.345 -0.00379944 497.516 -0.00379944 497.689C-0.00379944 497.861 0.0302662 498.032 0.0964312 498.191C0.162596 498.351 0.259571 498.496 0.381791 498.617C0.504011 498.739 0.64907 498.836 0.808671 498.901C0.968272 498.967 1.13926 499.001 1.31186 499Z" fill="#3F3D56"/>
<path d="M44.5443 389.585V391.787C44.5475 395.437 45.9995 398.937 48.5816 401.518C51.1637 404.099 54.6648 405.55 58.3164 405.553H157.475C161.127 405.552 164.63 404.101 167.212 401.52C169.794 398.938 171.246 395.438 171.247 391.787V389.585C171.254 386.363 170.122 383.243 168.052 380.774C167.363 379.955 166.583 379.216 165.727 378.572C165.727 378.572 111.212 377.338 111.212 375.819H58.3164C54.6654 375.824 51.1653 377.276 48.5837 379.856C46.002 382.437 44.5494 385.935 44.5443 389.585Z" fill="#3F3D56"/>
<path d="M100.189 497.513H114.512L114.512 405.006H100.189L100.189 497.513Z" fill="#3F3D56"/>
<path d="M59.4234 497.01C59.4234 498.557 81.1276 497.608 107.901 497.608C134.675 497.608 156.379 498.557 156.379 497.01C156.379 495.463 134.675 483.197 107.901 483.197C81.1276 483.197 59.4234 495.463 59.4234 497.01Z" fill="#3F3D56"/>
<path d="M180.172 485.681H193.679L200.105 433.604L180.169 433.605L180.172 485.681Z" fill="#A0616A"/>
<path d="M219.73 498.217L177.278 498.219L177.277 481.824L203.327 481.823C207.677 481.823 211.849 483.55 214.925 486.625C218.001 489.699 219.729 493.869 219.73 498.217L219.73 498.217Z" fill="#2F2E41"/>
<path d="M201.257 478.146L214.144 474.104L204.678 422.492L185.657 428.459L201.257 478.146Z" fill="#A0616A"/>
<path d="M242.755 478.269L202.251 490.974L197.34 475.332L222.195 467.536C226.345 466.234 230.843 466.633 234.699 468.646C238.555 470.659 241.452 474.12 242.755 478.269L242.755 478.269Z" fill="#2F2E41"/>
<path d="M192.22 454.177L167.511 389.344C161.967 390.645 115.478 400.928 99.9077 384.357C94.5716 378.678 93.5309 370.449 96.8144 359.9L105.901 348.486L106.184 348.501C109.619 348.682 190.397 353.207 195.935 377.562C200.604 398.095 209.13 436.376 211.632 447.62C211.886 448.785 211.712 450.002 211.143 451.05C210.574 452.098 209.647 452.907 208.532 453.329L198.594 457.053C198.041 457.261 197.454 457.368 196.862 457.368C195.857 457.368 194.874 457.063 194.046 456.493C193.217 455.924 192.58 455.116 192.22 454.177Z" fill="#2F2E41"/>
<path d="M177.897 461.886L153.188 397.053C147.644 398.354 101.155 408.636 85.5848 392.066C80.2487 386.387 79.208 378.158 82.4915 367.609L91.5784 356.195L91.8608 356.21C95.2965 356.391 176.074 360.916 181.612 385.271C186.281 405.804 194.807 444.085 197.309 455.329C197.563 456.494 197.389 457.711 196.82 458.759C196.251 459.807 195.324 460.616 194.209 461.038L184.272 464.762C183.718 464.97 183.131 465.077 182.54 465.077C181.534 465.077 180.552 464.772 179.723 464.202C178.894 463.632 178.257 462.825 177.897 461.886Z" fill="#2F2E41"/>
<path d="M155.671 336.101C152.009 336.1 148.41 335.148 145.226 333.339C142.042 331.53 139.383 328.925 137.509 325.78L129.662 312.493L148.314 302.303L156.234 313.157L209.971 307.498C210.232 307.025 210.526 306.571 210.851 306.139C211.882 304.782 213.188 303.659 214.682 302.84C216.177 302.021 217.827 301.527 219.526 301.388C221.232 301.242 222.949 301.462 224.563 302.034C226.177 302.606 227.65 303.517 228.882 304.705C230.859 306.599 232.136 309.106 232.508 311.817C232.88 314.529 232.325 317.286 230.932 319.642C230.06 321.11 228.888 322.378 227.492 323.362C226.096 324.345 224.509 325.023 222.832 325.351C221.156 325.678 219.43 325.648 217.766 325.263C216.102 324.877 214.539 324.144 213.178 323.112C212.863 322.871 212.561 322.614 212.272 322.341L160.803 335.458C159.126 335.886 157.402 336.102 155.671 336.101Z" fill="#A0616A"/>
<path d="M83.5287 355.084C82.785 354.549 82.2042 353.818 81.8506 352.972C81.4969 352.127 81.3843 351.201 81.5251 350.295C84.5907 330.095 81.0634 301.157 77.5645 280.439C76.8482 276.235 77.127 271.922 78.3783 267.845C79.6296 263.768 81.8187 260.041 84.7703 256.962C87.7219 253.883 91.3539 251.538 95.3754 250.114C99.3969 248.691 103.696 248.228 107.928 248.764C111.611 249.25 115.259 249.969 118.85 250.916C124.816 252.418 130.093 255.904 133.813 260.801C137.534 265.698 139.477 271.715 139.323 277.862C138.8 297.855 142.861 322.8 144.632 332.596C144.752 333.269 144.733 333.96 144.575 334.625C144.417 335.29 144.124 335.916 143.713 336.463C143.31 337.004 142.799 337.455 142.212 337.787C141.624 338.119 140.974 338.324 140.303 338.39C120.682 340.391 99.5239 349.955 88.6579 355.478C87.9596 355.838 87.1857 356.027 86.3998 356.03C85.3668 356.026 84.3615 355.695 83.5287 355.084Z" fill="#FD3A69"/>
<path d="M135.105 318.929C134.498 318.691 133.945 318.335 133.477 317.882C133.01 317.429 132.636 316.887 132.379 316.289L121.437 291.023C120.775 289.497 120.42 287.855 120.392 286.191C120.365 284.527 120.666 282.874 121.278 281.327C121.89 279.779 122.801 278.368 123.96 277.172C125.118 275.977 126.5 275.022 128.028 274.361C129.556 273.7 131.199 273.346 132.863 273.32C134.528 273.294 136.181 273.597 137.729 274.21C139.277 274.823 140.688 275.735 141.883 276.893C143.078 278.052 144.033 279.435 144.692 280.962L155.635 306.228C156.155 307.434 156.176 308.798 155.692 310.019C155.209 311.241 154.26 312.221 153.055 312.744L138.899 318.869C138.302 319.13 137.659 319.269 137.008 319.279C136.357 319.29 135.71 319.171 135.105 318.929H135.105Z" fill="#FD3A69"/>
<path d="M104.528 256.117C119.473 256.117 131.589 244.007 131.589 229.068C131.589 214.13 119.473 202.02 104.528 202.02C89.583 202.02 77.4677 214.13 77.4677 229.068C77.4677 244.007 89.583 256.117 104.528 256.117Z" fill="#A0616A"/>
<path d="M88.1749 253.099C87.7916 253.541 87.3234 253.902 86.7981 254.161C86.2727 254.419 85.7009 254.569 85.1164 254.603C84.5319 254.636 83.9466 254.552 83.3951 254.356C82.8437 254.16 82.3372 253.854 81.9057 253.459C75.8717 248.577 71.086 242.33 67.9438 235.234C64.4258 226.852 63.9103 216.624 67.9141 208.767C71.2987 202.126 77.3745 197.898 83.4401 194.443C85.7654 192.978 88.3135 191.902 90.9848 191.255C92.334 190.949 93.7323 190.929 95.0899 191.196C96.4474 191.463 97.734 192.011 98.8668 192.805C100.069 193.718 100.999 194.942 101.558 196.344C102.116 197.746 102.282 199.274 102.038 200.764C104.812 197.11 108.553 194.304 112.837 192.662C115.466 191.531 118.403 191.335 121.16 192.105C125.055 193.405 127.938 197.336 129.543 201.561C130.84 204.795 131.316 208.3 130.926 211.763C130.756 213.416 130.252 215.018 129.443 216.47C128.634 217.922 127.539 219.195 126.222 220.211C123.045 222.402 118.952 222.18 115.256 221.21C111.561 220.24 107.975 218.595 104.215 218.137C100.456 217.679 96.2891 218.673 94.0491 222.024C92.4716 224.385 92.0997 227.494 91.7779 230.458L90.1038 245.875C89.9855 248.08 89.5101 250.252 88.6961 252.306C88.5584 252.592 88.3831 252.859 88.1749 253.099Z" fill="#2F2E41"/>
<path d="M186.053 419.689H142.123C141.411 419.691 140.708 419.531 140.067 419.221C139.427 418.91 138.865 418.458 138.426 417.898C137.977 417.33 137.664 416.668 137.509 415.961C137.355 415.254 137.365 414.521 137.537 413.818C141.646 396.614 141.646 378.684 137.536 361.48C137.364 360.777 137.355 360.044 137.509 359.337C137.664 358.63 137.977 357.968 138.426 357.4C138.865 356.84 139.427 356.388 140.067 356.078C140.708 355.767 141.411 355.607 142.123 355.609H186.053C187.175 355.612 188.261 356.012 189.115 356.739C189.97 357.466 190.539 358.473 190.721 359.58C193.586 378.183 193.586 397.115 190.721 415.718C190.539 416.825 189.97 417.832 189.115 418.559C188.261 419.286 187.175 419.687 186.053 419.689Z" fill="#FD3A69"/>
<path d="M152.336 379.481V378.191C152.337 377.315 152.686 376.475 153.305 375.856C153.925 375.236 154.765 374.888 155.641 374.887H178.694C179.571 374.888 180.411 375.236 181.03 375.856C181.65 376.475 181.999 377.315 182 378.191V379.481C181.999 380.357 181.65 381.197 181.03 381.816C180.411 382.436 179.571 382.784 178.694 382.785H155.641C154.765 382.784 153.925 382.436 153.305 381.816C152.686 381.197 152.337 380.357 152.336 379.481Z" fill="white"/>
<path d="M152.336 393.076V391.785C152.337 390.909 152.686 390.069 153.305 389.45C153.925 388.831 154.765 388.482 155.641 388.481H178.694C179.571 388.482 180.411 388.831 181.03 389.45C181.65 390.069 181.999 390.909 182 391.785V393.076C181.999 393.952 181.65 394.792 181.03 395.411C180.411 396.031 179.571 396.379 178.694 396.38H155.641C154.765 396.379 153.925 396.031 153.305 395.411C152.686 394.792 152.337 393.952 152.336 393.076Z" fill="white"/>
<path d="M166.507 340.118C166.051 339.541 165.732 338.868 165.576 338.149C165.419 337.431 165.428 336.686 165.603 335.971C169.78 318.484 169.78 300.26 165.603 282.773C165.428 282.058 165.419 281.314 165.576 280.595C165.732 279.876 166.051 279.203 166.507 278.626C166.954 278.057 167.525 277.597 168.176 277.282C168.827 276.966 169.541 276.804 170.265 276.806H214.916C216.057 276.808 217.161 277.215 218.03 277.954C218.898 278.693 219.477 279.717 219.661 280.842C222.574 299.751 222.574 318.993 219.661 337.902C219.477 339.028 218.898 340.051 218.03 340.79C217.161 341.529 216.057 341.936 214.916 341.938H170.265C169.541 341.94 168.827 341.778 168.176 341.462C167.525 341.147 166.954 340.687 166.507 340.118Z" fill="#120078"/>
<path d="M206.3 300.838H182.778C181.902 300.837 181.061 300.488 180.442 299.869C179.822 299.249 179.474 298.41 179.473 297.534V296.131C179.474 295.255 179.822 294.415 180.442 293.796C181.061 293.176 181.902 292.828 182.778 292.827H206.3C207.176 292.828 208.016 293.176 208.636 293.796C209.256 294.415 209.604 295.255 209.605 296.131V297.534C209.604 298.41 209.256 299.25 208.636 299.869C208.016 300.488 207.176 300.837 206.3 300.838Z" fill="white"/>
<path d="M206.3 314.656H182.778C181.902 314.655 181.061 314.306 180.442 313.687C179.822 313.068 179.474 312.228 179.473 311.352V309.949C179.474 309.073 179.822 308.233 180.442 307.614C181.061 306.994 181.902 306.646 182.778 306.645H206.3C207.176 306.646 208.016 306.994 208.636 307.614C209.256 308.233 209.604 309.073 209.605 309.949V311.352C209.604 312.228 209.256 313.068 208.636 313.687C208.016 314.306 207.176 314.655 206.3 314.656Z" fill="white"/>
<path d="M146.02 364.344C144.411 363.782 142.939 362.888 141.698 361.72C140.458 360.551 139.478 359.135 138.821 357.563C138.67 357.196 138.538 356.822 138.426 356.441L80.7792 340.04C78.302 339.325 76.1214 337.83 74.5612 335.778C73.001 333.726 72.1442 331.226 72.1181 328.649L71.9774 306.402L93.2259 306.97L94.6107 320.333L143.904 342.454C144.368 342.177 144.851 341.933 145.349 341.723H145.35C147.165 340.962 149.139 340.654 151.101 340.826C153.062 340.998 154.952 341.645 156.607 342.71C158.263 343.775 159.634 345.228 160.602 346.941C161.57 348.655 162.107 350.578 162.165 352.545C162.224 354.513 161.802 356.464 160.937 358.232C160.072 360 158.789 361.531 157.2 362.692C155.61 363.854 153.762 364.611 151.814 364.899C149.866 365.187 147.878 364.997 146.02 364.344Z" fill="#A0616A"/>
<path d="M72.308 316.169C71.8752 315.682 71.5433 315.114 71.3315 314.498C71.1197 313.882 71.0322 313.231 71.0741 312.581L72.7642 285.101C72.8637 283.439 73.2901 281.813 74.0189 280.316C74.7477 278.819 75.7647 277.48 77.0116 276.377C78.2586 275.273 79.7111 274.426 81.2859 273.884C82.8608 273.341 84.5272 273.115 86.1897 273.217C87.8522 273.319 89.4782 273.748 90.9747 274.479C92.4712 275.21 93.8088 276.229 94.911 277.477C96.0132 278.726 96.8583 280.179 97.398 281.754C97.9377 283.329 98.1615 284.995 98.0564 286.657L96.3666 314.136C96.2842 315.448 95.6849 316.673 94.7002 317.543C93.7156 318.413 92.4258 318.857 91.1139 318.778L75.7183 317.832C75.068 317.794 74.4317 317.628 73.8463 317.342C73.2609 317.056 72.7381 316.658 72.308 316.169H72.308Z" fill="#FD3A69"/>
<path d="M320.087 168.565H229.742C227.113 168.562 224.593 167.517 222.734 165.659C220.875 163.801 219.829 161.281 219.826 158.654V60.6403C219.829 58.0126 220.875 55.4933 222.734 53.6352C224.593 51.7771 227.113 50.7319 229.742 50.7289H320.087C322.716 50.7319 325.236 51.7771 327.095 53.6352C328.954 55.4933 330 58.0126 330.003 60.6403V158.654C330 161.281 328.954 163.801 327.095 165.659C325.236 167.517 322.716 168.562 320.087 168.565ZM229.742 52.9314C227.697 52.9337 225.737 53.7466 224.291 55.1918C222.845 56.6371 222.032 58.5965 222.03 60.6403V158.654C222.032 160.697 222.845 162.657 224.291 164.102C225.737 165.547 227.697 166.36 229.742 166.363H320.087C322.132 166.36 324.092 165.547 325.538 164.102C326.984 162.657 327.797 160.697 327.799 158.654V60.6403C327.797 58.5965 326.984 56.6371 325.538 55.1918C324.092 53.7466 322.132 52.9337 320.087 52.9314H229.742Z" fill="#3F3D56"/>
<path d="M485.351 168.565H395.007C392.378 168.562 389.857 167.517 387.999 165.659C386.14 163.801 385.094 161.281 385.091 158.654V60.6403C385.094 58.0126 386.14 55.4933 387.999 53.6352C389.857 51.7771 392.378 50.7319 395.007 50.7289H485.351C487.98 50.7319 490.501 51.7771 492.36 53.6352C494.219 55.4933 495.264 58.0126 495.267 60.6403V158.654C495.264 161.281 494.219 163.801 492.36 165.659C490.501 167.517 487.98 168.562 485.351 168.565ZM395.007 52.9314C392.962 52.9337 391.002 53.7466 389.556 55.1918C388.11 56.6371 387.297 58.5965 387.294 60.6403V158.654C387.297 160.697 388.11 162.657 389.556 164.102C391.002 165.547 392.962 166.36 395.007 166.363H485.351C487.396 166.36 489.356 165.547 490.802 164.102C492.248 162.657 493.061 160.697 493.064 158.654V60.6403C493.061 58.5965 492.248 56.6371 490.802 55.1918C489.356 53.7466 487.396 52.9337 485.351 52.9314H395.007Z" fill="#3F3D56"/>
<path d="M247.938 91.476H239.124C237.809 91.4745 236.549 90.9519 235.62 90.0229C234.69 89.0938 234.167 87.8341 234.166 86.5202V77.7101C234.167 76.3962 234.69 75.1365 235.62 74.2075C236.549 73.2784 237.809 72.7558 239.124 72.7543H247.938C249.252 72.7558 250.513 73.2784 251.442 74.2075C252.371 75.1365 252.894 76.3962 252.896 77.7101V86.5202C252.894 87.8341 252.371 89.0938 251.442 90.0229C250.513 90.9519 249.252 91.4745 247.938 91.476Z" fill="#120078"/>
<path d="M247.938 119.008H239.124C237.809 119.006 236.549 118.484 235.62 117.555C234.69 116.626 234.167 115.366 234.166 114.052V105.242C234.167 103.928 234.69 102.668 235.62 101.739C236.549 100.81 237.809 100.288 239.124 100.286H247.938C249.252 100.288 250.513 100.81 251.442 101.739C252.371 102.668 252.894 103.928 252.896 105.242V114.052C252.894 115.366 252.371 116.626 251.442 117.555C250.513 118.484 249.252 119.006 247.938 119.008Z" fill="#FD3A69"/>
<path d="M312.358 86.1204H271.208C270.331 86.1195 269.491 85.7711 268.872 85.1517C268.252 84.5323 267.903 83.6926 267.902 82.8166V81.4137C267.903 80.5377 268.252 79.698 268.872 79.0786C269.491 78.4592 270.331 78.1108 271.208 78.1099H312.358C313.234 78.1108 314.074 78.4592 314.694 79.0786C315.314 79.698 315.662 80.5377 315.663 81.4137V82.8166C315.662 83.6926 315.314 84.5323 314.694 85.1517C314.074 85.7711 313.234 86.1195 312.358 86.1204Z" fill="#120078"/>
<path d="M413.962 89.7486H405.148C403.834 89.7472 402.574 89.2246 401.644 88.2955C400.715 87.3665 400.192 86.1068 400.19 84.7929V75.9827C400.192 74.6688 400.715 73.4092 401.644 72.4801C402.574 71.5511 403.834 71.0285 405.148 71.027H413.962C415.277 71.0285 416.537 71.5511 417.466 72.4801C418.396 73.4092 418.919 74.6688 418.92 75.9827V84.7929C418.919 86.1068 418.396 87.3665 417.466 88.2955C416.537 89.2246 415.277 89.7472 413.962 89.7486Z" fill="#120078"/>
<path d="M478.382 84.3931H437.232C436.356 84.3922 435.516 84.0438 434.896 83.4244C434.277 82.805 433.928 81.9652 433.927 81.0893V79.6864C433.928 78.8104 434.277 77.9706 434.896 77.3513C435.516 76.7319 436.356 76.3835 437.232 76.3825H478.382C479.259 76.3835 480.099 76.7319 480.719 77.3513C481.338 77.9706 481.687 78.8104 481.688 79.6864V81.0893C481.687 81.9652 481.338 82.805 480.719 83.4244C480.099 84.0438 479.259 84.3922 478.382 84.3931Z" fill="#120078"/>
<path d="M478.382 110.824H401.976C401.1 110.823 400.259 110.474 399.64 109.855C399.02 109.236 398.671 108.396 398.671 107.52V106.117C398.671 105.241 399.02 104.401 399.64 103.782C400.259 103.162 401.1 102.814 401.976 102.813H478.382C479.259 102.814 480.099 103.162 480.719 103.782C481.338 104.401 481.687 105.241 481.688 106.117V107.52C481.687 108.396 481.338 109.236 480.719 109.855C480.099 110.474 479.259 110.823 478.382 110.824Z" fill="#120078"/>
<path d="M478.382 129.545H401.976C401.1 129.544 400.259 129.196 399.64 128.577C399.02 127.957 398.671 127.117 398.671 126.241V124.839C398.671 123.963 399.02 123.123 399.64 122.503C400.259 121.884 401.1 121.536 401.976 121.535H478.382C479.259 121.536 480.099 121.884 480.719 122.503C481.338 123.123 481.687 123.963 481.688 124.839V126.241C481.687 127.117 481.338 127.957 480.719 128.577C480.099 129.196 479.259 129.544 478.382 129.545Z" fill="#FD3A69"/>
<path d="M478.382 148.267H401.976C401.1 148.266 400.259 147.918 399.64 147.298C399.02 146.679 398.671 145.839 398.671 144.963V143.56C398.671 142.684 399.02 141.844 399.64 141.225C400.259 140.606 401.1 140.257 401.976 140.256H478.382C479.259 140.257 480.099 140.606 480.719 141.225C481.338 141.844 481.687 142.684 481.688 143.56V144.963C481.687 145.839 481.338 146.679 480.719 147.298C480.099 147.918 479.259 148.266 478.382 148.267Z" fill="#FD3A69"/>
<path d="M650.616 168.565H560.271C557.643 168.562 555.122 167.517 553.263 165.659C551.404 163.801 550.359 161.281 550.356 158.654V60.6403C550.359 58.0126 551.404 55.4933 553.263 53.6352C555.122 51.7771 557.643 50.7319 560.271 50.7289H650.616C653.245 50.7319 655.765 51.7771 657.624 53.6352C659.483 55.4933 660.529 58.0126 660.532 60.6403V158.654C660.529 161.281 659.483 163.801 657.624 165.659C655.765 167.517 653.245 168.562 650.616 168.565ZM560.271 52.9314C558.227 52.9337 556.266 53.7466 554.821 55.1918C553.375 56.6371 552.561 58.5965 552.559 60.6403V158.654C552.561 160.697 553.375 162.657 554.821 164.102C556.266 165.547 558.227 166.36 560.271 166.363H650.616C652.661 166.36 654.621 165.547 656.067 164.102C657.513 162.657 658.326 160.697 658.328 158.654V60.6403C658.326 58.5965 657.513 56.6371 656.067 55.1918C654.621 53.7466 652.661 52.9337 650.616 52.9314H560.271Z" fill="#3F3D56"/>
<path d="M643.647 84.3931H602.497C601.621 84.3922 600.78 84.0438 600.161 83.4244C599.541 82.805 599.193 81.9652 599.192 81.0893V79.6864C599.193 78.8104 599.541 77.9706 600.161 77.3513C600.78 76.7319 601.621 76.3835 602.497 76.3825H643.647C644.523 76.3835 645.364 76.7319 645.983 77.3513C646.603 77.9706 646.951 78.8104 646.952 79.6864V81.0893C646.951 81.9652 646.603 82.805 645.983 83.4244C645.364 84.0438 644.523 84.3922 643.647 84.3931Z" fill="#FD3A69"/>
<path d="M643.647 110.824H567.24C566.364 110.823 565.524 110.474 564.904 109.855C564.285 109.236 563.936 108.396 563.935 107.52V106.117C563.936 105.241 564.285 104.401 564.904 103.782C565.524 103.162 566.364 102.814 567.24 102.813H643.647C644.523 102.814 645.364 103.162 645.983 103.782C646.603 104.401 646.951 105.241 646.952 106.117V107.52C646.951 108.396 646.603 109.236 645.983 109.855C645.364 110.474 644.523 110.823 643.647 110.824Z" fill="#120078"/>
<path d="M643.647 129.545H567.24C566.364 129.544 565.524 129.196 564.904 128.577C564.285 127.957 563.936 127.117 563.935 126.241V124.839C563.936 123.963 564.285 123.123 564.904 122.503C565.524 121.884 566.364 121.536 567.24 121.535H643.647C644.523 121.536 645.364 121.884 645.983 122.503C646.603 123.123 646.951 123.963 646.952 124.839V126.241C646.951 127.117 646.603 127.957 645.983 128.577C645.364 129.196 644.523 129.544 643.647 129.545Z" fill="#120078"/>
<path d="M643.647 148.267H567.24C566.364 148.266 565.524 147.918 564.904 147.298C564.285 146.679 563.936 145.839 563.935 144.963V143.56C563.936 142.684 564.285 141.844 564.904 141.225C565.524 140.606 566.364 140.257 567.24 140.256H643.647C644.523 140.257 645.364 140.606 645.983 141.225C646.603 141.844 646.951 142.684 646.952 143.56V144.963C646.951 145.839 646.603 146.679 645.983 147.298C645.364 147.918 644.523 148.266 643.647 148.267Z" fill="#120078"/>
<path d="M312.358 113.652H271.208C270.331 113.651 269.491 113.303 268.872 112.684C268.252 112.064 267.903 111.224 267.902 110.348V108.946C267.903 108.07 268.252 107.23 268.872 106.61C269.491 105.991 270.331 105.643 271.208 105.642H312.358C313.234 105.643 314.074 105.991 314.694 106.61C315.314 107.23 315.662 108.07 315.663 108.946V110.348C315.662 111.224 315.314 112.064 314.694 112.684C314.074 113.303 313.234 113.651 312.358 113.652Z" fill="#FD3A69"/>
<path d="M247.938 146.54H239.124C237.809 146.538 236.549 146.016 235.62 145.086C234.69 144.157 234.167 142.898 234.166 141.584V132.774C234.167 131.46 234.69 130.2 235.62 129.271C236.549 128.342 237.809 127.819 239.124 127.818H247.938C249.252 127.819 250.513 128.342 251.442 129.271C252.371 130.2 252.894 131.46 252.896 132.774V141.584C252.894 142.898 252.371 144.157 251.442 145.086C250.513 146.016 249.252 146.538 247.938 146.54Z" fill="#FD3A69"/>
<path d="M312.358 141.184H271.208C270.331 141.183 269.491 140.835 268.872 140.215C268.252 139.596 267.903 138.756 267.902 137.88V136.477C267.903 135.601 268.252 134.762 268.872 134.142C269.491 133.523 270.331 133.174 271.208 133.174H312.358C313.234 133.174 314.074 133.523 314.694 134.142C315.314 134.762 315.662 135.601 315.663 136.477V137.88C315.662 138.756 315.314 139.596 314.694 140.215C314.074 140.835 313.234 141.183 312.358 141.184Z" fill="#FD3A69"/>
<path d="M584.506 79.362C584.506 79.3366 584.51 79.312 584.51 79.2866C584.51 77.985 584.254 76.6961 583.755 75.4936C583.257 74.2911 582.527 73.1985 581.606 72.2781C580.685 71.3577 579.592 70.6276 578.389 70.1296C577.186 69.6315 575.897 69.3751 574.594 69.3751V79.362H584.506Z" fill="#FD3A69"/>
<path d="M573.493 80.4633V70.4764C571.534 70.4757 569.62 71.0545 567.99 72.1399C566.361 73.2252 565.09 74.7685 564.336 76.5751C563.583 78.3817 563.382 80.3708 563.758 82.2916C564.134 84.2124 565.071 85.9789 566.45 87.3684C567.829 88.7578 569.588 89.7081 571.507 90.0993C573.426 90.4905 575.417 90.3052 577.231 89.5667C579.044 88.8282 580.598 87.5695 581.697 85.9495C582.795 84.3294 583.39 82.4204 583.405 80.4633H573.493Z" fill="#120078"/>
</g>
<defs>
<clipPath id="clip0">
<rect width="868" height="499" fill="white"/>
</clipPath>
</defs>
</svg>
