<svg width="116" height="47" viewBox="0 0 116 47" fill="none" xmlns="http://www.w3.org/2000/svg">
<path d="M0.34375 25.2188L4.79688 23.1094H5.03125V28.7344C5.03125 29.8125 5.97656 30.7266 7.86719 31.4766C9.17969 31.9922 10.6172 32.25 12.1797 32.25C13.7422 32.25 15.1797 31.9922 16.4922 31.4766C18.3828 30.7266 19.3281 29.8125 19.3281 28.7344V21.9141C19.3281 20.8203 18.3828 19.9062 16.4922 19.1719C15.1797 18.6562 13.7422 18.3984 12.1797 18.3984C10.1953 18.3984 8.41406 18.0938 6.83594 17.4844C3.91406 16.3281 2.45312 14.7188 2.45312 12.6562V5.88281C2.45312 3.78906 3.91406 2.17969 6.83594 1.05469C8.41406 0.445312 10.1953 0.140625 12.1797 0.140625C14.1641 0.140625 15.9453 0.445312 17.5234 1.05469C20.4453 2.21094 21.9062 3.82031 21.9062 5.88281V8.88281L17.4531 10.9922H17.2188V6.70312C17.2188 5.92188 16.7266 5.33594 15.7422 4.94531C14.7734 4.55469 13.5859 4.35938 12.1797 4.35938C10.7734 4.35938 9.57812 4.55469 8.59375 4.94531C7.625 5.33594 7.14062 5.92188 7.14062 6.70312V11.8359C7.14062 12.6172 7.625 13.2031 8.59375 13.5938C9.57812 13.9844 10.7734 14.1797 12.1797 14.1797C14.5391 14.1797 16.7109 14.5938 18.6953 15.4219C22.2422 16.8906 24.0156 19.0547 24.0156 21.9141V28.7344C24.0156 31.5781 22.2422 33.7422 18.6953 35.2266C16.7109 36.0547 14.5391 36.4688 12.1797 36.4688C9.82031 36.4688 7.64844 36.0547 5.66406 35.2266C2.11719 33.7578 0.34375 31.5938 0.34375 28.7344V25.2188ZM51.9062 15.4922C51.9062 15.4922 51.9062 20.5703 51.9062 30.7266C51.9062 32.8203 50.4453 34.4297 47.5234 35.5547C45.9453 36.1641 44.1641 36.4688 42.1797 36.4688C40.3203 36.4688 38.6406 36.2031 37.1406 35.6719V44.4375L32.6875 46.5469H32.4531V15.4922C32.4531 13.3984 33.9141 11.7891 36.8359 10.6641C38.4141 10.0547 40.1953 9.75 42.1797 9.75C44.1641 9.75 45.9453 10.0547 47.5234 10.6641C50.4453 11.8203 51.9062 13.4297 51.9062 15.4922ZM47.2188 16.3125C47.2188 15.5312 46.7266 14.9453 45.7422 14.5547C44.7734 14.1641 43.5859 13.9688 42.1797 13.9688C40.7734 13.9688 39.5781 14.1641 38.5938 14.5547C37.625 14.9453 37.1406 15.5312 37.1406 16.3125V29.9062C37.1406 30.6875 37.625 31.2734 38.5938 31.6641C39.5781 32.0547 40.7734 32.25 42.1797 32.25C43.5859 32.25 44.7734 32.0547 45.7422 31.6641C46.7266 31.2734 47.2188 30.6875 47.2188 29.9062V16.3125ZM76.75 34.8281L72.2969 36.9375H72.0625V35.6719C70.5625 36.2031 68.9609 36.4688 67.2578 36.4688C65.4297 36.4688 63.7266 36.1641 62.1484 35.5547C59.2266 34.3984 57.7656 32.7891 57.7656 30.7266V24.3984C57.7656 22.3047 59.2266 20.6953 62.1484 19.5703C63.7266 18.9609 65.4297 18.6562 67.2578 18.6562C68.9766 18.6562 70.5781 18.9219 72.0625 19.4531V16.3125C72.0625 15.5312 71.5703 14.9453 70.5859 14.5547C69.6172 14.1641 68.4297 13.9688 67.0234 13.9688H61.3281V13.7344L63.2031 9.75H67.0234C69.0078 9.75 70.7891 10.0547 72.3672 10.6641C75.2891 11.7891 76.75 13.3984 76.75 15.4922V34.8281ZM62.4531 29.9062C62.4531 30.6875 62.9375 31.2734 63.9062 31.6641C64.8906 32.0547 66.0078 32.25 67.2578 32.25C68.5078 32.25 69.6172 32.0547 70.5859 31.6641C71.5703 31.2734 72.0625 30.6875 72.0625 29.9062V25.2188C72.0625 24.4375 71.5703 23.8516 70.5859 23.4609C69.6172 23.0703 68.5078 22.875 67.2578 22.875C66.0078 22.875 64.8906 23.0703 63.9062 23.4609C62.9375 23.8516 62.4531 24.4375 62.4531 25.2188V29.9062ZM83.0781 27.7266L87.5312 25.6172H87.7656V29.9062C87.7656 30.6875 88.25 31.2734 89.2188 31.6641C90.2031 32.0547 91.3984 32.25 92.8047 32.25C94.2578 32.25 95.4531 32.0547 96.3906 31.6641C97.3594 31.2578 97.8438 30.6719 97.8438 29.9062V26.25C97.8438 25.4844 97.3438 24.8984 96.3438 24.4922C95.375 24.1016 94.1875 23.9062 92.7812 23.9062C91.2344 23.9062 89.6953 23.6016 88.1641 22.9922C85.4297 21.8828 84.0625 20.2734 84.0625 18.1641V15.4922C84.0625 13.4922 85.3594 11.9297 87.9531 10.8047C89.5625 10.1016 91.1797 9.75 92.8047 9.75C94.3516 9.75 95.6875 9.98438 96.8125 10.4531C99.5156 11.6094 100.867 13.2891 100.867 15.4922L96.4141 17.6016H96.1797V16.3125C96.1797 15.4062 95.8594 14.7891 95.2188 14.4609C94.5781 14.1328 93.7734 13.9688 92.8047 13.9688C91.4609 13.9688 90.4453 14.1641 89.7578 14.5547C89.0859 14.9453 88.75 15.5312 88.75 16.3125V17.3438C88.75 18.125 89.0703 18.7109 89.7109 19.1016C90.3516 19.4922 91.375 19.6875 92.7812 19.6875C94.7656 19.6875 96.5469 19.9922 98.125 20.6016C101.062 21.7266 102.531 23.3359 102.531 25.4297V30.7266C102.531 32.8047 101.07 34.4141 98.1484 35.5547C96.5703 36.1641 94.7891 36.4688 92.8047 36.4688C90.8203 36.4688 89.0391 36.1641 87.4609 35.5547C84.5391 34.3984 83.0781 32.7891 83.0781 30.7266V27.7266ZM110.383 5.03906C109.836 4.47656 109.562 3.80469 109.562 3.02344C109.562 2.22656 109.836 1.54688 110.383 0.984375C110.93 0.421875 111.594 0.140625 112.375 0.140625C113.156 0.140625 113.82 0.421875 114.367 0.984375C114.914 1.54688 115.188 2.22656 115.188 3.02344C115.188 3.80469 114.914 4.47656 114.367 5.03906C113.82 5.60156 113.156 5.88281 112.375 5.88281C111.594 5.88281 110.93 5.60156 110.383 5.03906ZM110.031 36.9375V11.3906L114.484 9.28125H114.719V34.8281L110.266 36.9375H110.031Z" fill="white"/>
</svg>
