<svg width="1920" height="596" viewBox="0 0 1920 596" fill="none" xmlns="http://www.w3.org/2000/svg">
<path d="M1938 -4.35944H1857.08C1776.17 -4.35944 1614.33 -4.35944 1452.5 14.6981C1290.67 32.8259 1128.83 72.3354 967 109.521C805.167 146.706 643.333 186.216 481.5 166.461C319.667 146.706 157.833 72.3354 -4 128.578C-165.833 186.216 -327.667 374.467 -489.5 375.164C-651.333 374.467 -813.167 186.216 -975 109.521C-1136.83 32.8259 -1298.67 72.3353 -1460.5 90.4632C-1622.33 109.521 -1784.17 109.521 -1946 185.518C-2107.83 260.586 -2269.67 413.976 -2431.5 489.044C-2593.33 565.042 -2755.17 565.042 -2917 432.104C-3078.83 300.096 -3240.67 32.8259 -3402.5 14.6981C-3564.33 -4.35944 -3726.17 223.401 -3888 394.221C-4049.83 565.042 -4211.67 678.922 -4373.5 735.862C-4535.33 792.802 -4697.17 792.802 -4859 659.864C-5020.83 527.856 -5182.67 260.586 -5344.5 109.521C-5506.33 -41.5448 -5668.17 -81.0543 -5830 -118.24C-5991.83 -155.425 -6153.67 -194.934 -6315.5 -99.1821C-6477.33 -4.35943 -6639.17 223.401 -6801 223.401C-6962.83 223.401 -7124.67 -4.35943 -7286.5 -99.1821C-7448.33 -194.934 -7610.17 -155.425 -7772 -23.417C-7933.83 109.521 -8095.67 337.281 -8257.5 489.044C-8419.33 641.736 -8581.17 716.107 -8743 735.862C-8904.83 755.617 -9066.67 716.107 -9228.5 621.982C-9390.33 527.856 -9552.17 374.466 -9633.08 299.399L-9714 223.401V-346H-9633.08C-9552.17 -346 -9390.33 -346 -9228.5 -346C-9066.67 -346 -8904.83 -346 -8743 -346C-8581.17 -346 -8419.33 -346 -8257.5 -346C-8095.67 -346 -7933.83 -346 -7772 -346C-7610.17 -346 -7448.33 -346 -7286.5 -346C-7124.67 -346 -6962.83 -346 -6801 -346C-6639.17 -346 -6477.33 -346 -6315.5 -346C-6153.67 -346 -5991.83 -346 -5830 -346C-5668.17 -346 -5506.33 -346 -5344.5 -346C-5182.67 -346 -5020.83 -346 -4859 -346C-4697.17 -346 -4535.33 -346 -4373.5 -346C-4211.67 -346 -4049.83 -346 -3888 -346C-3726.17 -346 -3564.33 -346 -3402.5 -346C-3240.67 -346 -3078.83 -346 -2917 -346C-2755.17 -346 -2593.33 -346 -2431.5 -346C-2269.67 -346 -2107.83 -346 -1946 -346C-1784.17 -346 -1622.33 -346 -1460.5 -346C-1298.67 -346 -1136.83 -346 -975 -346C-813.167 -346 -651.333 -346 -489.5 -346C-327.667 -346 -165.833 -346 -4 -346C157.833 -346 319.667 -346 481.5 -346C643.333 -346 805.167 -346 967 -346C1128.83 -346 1290.67 -346 1452.5 -346C1614.33 -346 1776.17 -346 1857.08 -346H1938L1938 -4.35944Z" fill="url(#paint0_linear)"/>
<path opacity="0.9" d="M1989.5 117.5L1951 175L1888.08 206.5C1807.17 244.722 1645.33 299.015 1483.5 248C1321.67 197.609 1276.42 184.198 1124 147.609C946.5 105 643.333 96.5941 481.5 147.609C319.667 198 188.833 159.209 27 171.378C-134.833 184.17 -296.667 337.111 -458.5 298.889C-620.333 260.667 -782.167 184.222 -944 146C-1105.83 107.778 -1267.67 107.778 -1429.5 107.778C-1591.33 107.778 -1753.17 107.778 -1915 133.207C-2076.83 159.261 -2238.67 209.184 -2400.5 184.222C-2562.33 159.261 -2724.17 56.2948 -2886 56.7628C-3047.83 56.2948 -3209.67 159.261 -3371.5 158.793C-3533.33 159.261 -3695.17 56.2948 -3857 56.7628C-4018.83 56.2948 -4180.67 159.261 -4342.5 197.015C-4504.33 235.705 -4666.17 209.184 -4828 158.793C-4989.83 107.778 -5151.67 31.3333 -5313.5 31.3333C-5475.33 31.3333 -5637.17 107.778 -5799 133.207C-5960.83 159.261 -6122.67 132.739 -6284.5 82.3483C-6446.33 31.3334 -6608.17 -45.1111 -6770 -19.6817C-6931.83 6.37185 -7093.67 132.739 -7255.5 184.222C-7417.33 235.705 -7579.17 209.184 -7741 222.444C-7902.83 235.705 -8064.67 285.628 -8226.5 337.111C-8388.33 388.594 -8550.17 438.517 -8712 388.126C-8873.83 337.111 -9035.67 184.222 -9197.5 184.222C-9359.33 184.222 -9521.17 337.111 -9602.08 413.556L-9683 490V-198H-9602.08C-9521.17 -198 -9359.33 -198 -9197.5 -198C-9035.67 -198 -8873.83 -198 -8712 -198C-8550.17 -198 -8388.33 -198 -8226.5 -198C-8064.67 -198 -7902.83 -198 -7741 -198C-7579.17 -198 -7417.33 -198 -7255.5 -198C-7093.67 -198 -6931.83 -198 -6770 -198C-6608.17 -198 -6446.33 -198 -6284.5 -198C-6122.67 -198 -5960.83 -198 -5799 -198C-5637.17 -198 -5475.33 -198 -5313.5 -198C-5151.67 -198 -4989.83 -198 -4828 -198C-4666.17 -198 -4504.33 -198 -4342.5 -198C-4180.67 -198 -4018.83 -198 -3857 -198C-3695.17 -198 -3533.33 -198 -3371.5 -198C-3209.67 -198 -3047.83 -198 -2886 -198C-2724.17 -198 -2562.33 -198 -2400.5 -198C-2238.67 -198 -2076.83 -198 -1915 -198C-1753.17 -198 -1591.33 -198 -1429.5 -198C-1267.67 -198 -1105.83 -198 -944 -198C-782.167 -198 -620.333 -198 -458.5 -198C-296.667 -198 -134.833 -198 27 -198C188.833 -198 350.667 -198 512.5 -198C674.333 -198 836.167 -198 998 -198C1159.83 -198 1321.67 -198 1483.5 -198C1645.33 -198 1807.17 -198 1888.08 -198H1969L1989.5 117.5Z" fill="url(#paint1_linear)"/>
<defs>
<linearGradient id="paint0_linear" x1="1938" y1="-364" x2="1938" y2="754" gradientUnits="userSpaceOnUse">
<stop stop-color="#230CA5"/>
<stop offset="1" stop-color="#3B2F7E"/>
</linearGradient>
<linearGradient id="paint1_linear" x1="1969" y1="-198" x2="1969" y2="490" gradientUnits="userSpaceOnUse">
<stop stop-color="#120078"/>
<stop offset="1" stop-color="#120078"/>
</linearGradient>
</defs>
</svg>
